# xmcd
#
# Track frame offsets:
#	150
#	25405
#	41395
#	56342
#	75240
#	97335
#	112785
#	132122
#	143907
#	162822
#	185942
#	200187
#	222007
#
# Disc length: 3283 seconds
#
# Revision: 1
# Processed by: cddbd v1.4PL0 Copyright (c) Steve Scherf et al.
# Submitted via: audiograbber 1.80
#
DISCID=b20cd10d
DTITLE=Geoff Achison/Adrian K. - Classically Blue
DYEAR=1900
DGENRE=
TTITLE0=Mystery Train
TTITLE1=All Shook Up
TTITLE2=Dark Horse
TTITLE3=When You've Got A Good Friend
TTITLE4=Hand Jive
TTITLE5=Song For Jenny Dean
TTITLE6=Woman Across The River
TTITLE7=Chaser
TTITLE8=Well Alright
TTITLE9=Kissing Angels
TTITLE10=Blue Moon
TTITLE11=Guilty
TTITLE12=Hold On, I'm Coming
EXTD=
EXTT0=
EXTT1=
EXTT2=
EXTT3=
EXTT4=
EXTT5=
EXTT6=
EXTT7=
EXTT8=
EXTT9=
EXTT10=
EXTT11=
EXTT12=
PLAYORDER=
